<mxfile host="app.diagrams.net" modified="2024-01-17T10:40:17.333Z" agent="Mozilla/5.0 (Windows NT 10.0; Win64; x64) AppleWebKit/537.36 (KHTML, like Gecko) Chrome/120.0.0.0 Safari/537.36" etag="9GyyxlT5nPprhwM5y_KD" version="22.1.17" type="github">
  <diagram name="Page-1" id="5f0bae14-7c28-e335-631c-24af17079c00">
    <mxGraphModel dx="1434" dy="842" grid="1" gridSize="10" guides="1" tooltips="1" connect="1" arrows="1" fold="1" page="1" pageScale="1" pageWidth="1100" pageHeight="850" background="#ffffff" math="0" shadow="0">
      <root>
        <mxCell id="0" />
        <mxCell id="1" parent="0" />
        <mxCell id="39150e848f15840c-1" value="&lt;b&gt;Web App&lt;/b&gt;" style="verticalAlign=top;align=left;spacingTop=8;spacingLeft=2;spacingRight=12;shape=cube;size=10;direction=south;fontStyle=4;html=1;rounded=0;shadow=0;comic=0;labelBackgroundColor=none;strokeWidth=1;fontFamily=Verdana;fontSize=12;fillColor=#dae8fc;strokeColor=#6c8ebf;" parent="1" vertex="1">
          <mxGeometry x="120" y="105" width="310" height="175" as="geometry" />
        </mxCell>
        <mxCell id="39150e848f15840c-2" value="&lt;b&gt;Mobile App&lt;/b&gt;" style="verticalAlign=top;align=left;spacingTop=8;spacingLeft=2;spacingRight=12;shape=cube;size=10;direction=south;fontStyle=4;html=1;rounded=0;shadow=0;comic=0;labelBackgroundColor=none;strokeWidth=1;fontFamily=Verdana;fontSize=12;fillColor=#fff2cc;strokeColor=#d6b656;" parent="1" vertex="1">
          <mxGeometry x="530" y="105" width="330" height="165" as="geometry" />
        </mxCell>
        <mxCell id="39150e848f15840c-3" value="&lt;b&gt;Backend&lt;/b&gt;" style="verticalAlign=top;align=left;spacingTop=8;spacingLeft=2;spacingRight=12;shape=cube;size=10;direction=south;fontStyle=4;html=1;rounded=0;shadow=0;comic=0;labelBackgroundColor=none;strokeWidth=1;fontFamily=Verdana;fontSize=12;fillColor=#d5e8d4;strokeColor=#82b366;" parent="1" vertex="1">
          <mxGeometry x="370" y="445" width="260" height="150" as="geometry" />
        </mxCell>
        <mxCell id="39150e848f15840c-5" value="Module" style="shape=component;align=left;spacingLeft=36;rounded=0;shadow=0;comic=0;labelBackgroundColor=none;strokeWidth=1;fontFamily=Verdana;fontSize=12;html=1;" parent="1" vertex="1">
          <mxGeometry x="210" y="155" width="120" height="60" as="geometry" />
        </mxCell>
        <mxCell id="39150e848f15840c-6" value="" style="ellipse;whiteSpace=wrap;html=1;rounded=0;shadow=0;comic=0;labelBackgroundColor=none;strokeWidth=1;fontFamily=Verdana;fontSize=12;align=center;" parent="1" vertex="1">
          <mxGeometry x="257" y="261" width="20" height="20" as="geometry" />
        </mxCell>
        <mxCell id="39150e848f15840c-7" value="Android" style="shape=component;align=left;spacingLeft=36;rounded=0;shadow=0;comic=0;labelBackgroundColor=none;strokeWidth=1;fontFamily=Verdana;fontSize=12;html=1;" parent="1" vertex="1">
          <mxGeometry x="540" y="155" width="120" height="60" as="geometry" />
        </mxCell>
        <mxCell id="39150e848f15840c-10" value="Admin&lt;br&gt;Dashboard" style="shape=component;align=left;spacingLeft=36;rounded=0;shadow=0;comic=0;labelBackgroundColor=none;strokeWidth=1;fontFamily=Verdana;fontSize=12;html=1;" parent="1" vertex="1">
          <mxGeometry x="490" y="465" width="120" height="50" as="geometry" />
        </mxCell>
        <mxCell id="39150e848f15840c-11" style="edgeStyle=none;rounded=0;html=1;dashed=1;labelBackgroundColor=none;startArrow=none;startFill=0;startSize=8;endArrow=open;endFill=0;endSize=16;fontFamily=Verdana;fontSize=12;exitX=-0.033;exitY=0.781;exitDx=0;exitDy=0;exitPerimeter=0;" parent="1" source="39150e848f15840c-3" edge="1">
          <mxGeometry relative="1" as="geometry">
            <mxPoint x="400" y="435" as="sourcePoint" />
            <mxPoint x="274.9085459833291" y="273.1200408846255" as="targetPoint" />
          </mxGeometry>
        </mxCell>
        <mxCell id="39150e848f15840c-12" style="edgeStyle=none;rounded=0;html=1;dashed=1;labelBackgroundColor=none;startArrow=none;startFill=0;startSize=8;endArrow=open;endFill=0;endSize=16;fontFamily=Verdana;fontSize=12;entryX=0.5;entryY=1;entryDx=0;entryDy=0;" parent="1" source="39150e848f15840c-3" target="39150e848f15840c-9" edge="1">
          <mxGeometry relative="1" as="geometry" />
        </mxCell>
        <mxCell id="39150e848f15840c-13" style="edgeStyle=elbowEdgeStyle;rounded=0;html=1;labelBackgroundColor=none;startArrow=none;startFill=0;startSize=8;endArrow=none;endFill=0;endSize=16;fontFamily=Verdana;fontSize=12;" parent="1" source="39150e848f15840c-9" target="39150e848f15840c-7" edge="1">
          <mxGeometry relative="1" as="geometry" />
        </mxCell>
        <mxCell id="G-kiZLfdjXtB29xu1KnQ-1" value="iOS" style="shape=component;align=left;spacingLeft=36;rounded=0;shadow=0;comic=0;labelBackgroundColor=none;strokeWidth=1;fontFamily=Verdana;fontSize=12;html=1;" parent="1" vertex="1">
          <mxGeometry x="710" y="155" width="120" height="60" as="geometry" />
        </mxCell>
        <mxCell id="G-kiZLfdjXtB29xu1KnQ-2" style="edgeStyle=elbowEdgeStyle;rounded=0;html=1;labelBackgroundColor=none;startArrow=none;startFill=0;startSize=8;endArrow=none;endFill=0;endSize=16;fontFamily=Verdana;fontSize=12;entryX=0.433;entryY=1.033;entryDx=0;entryDy=0;entryPerimeter=0;" parent="1" source="39150e848f15840c-9" target="G-kiZLfdjXtB29xu1KnQ-1" edge="1">
          <mxGeometry relative="1" as="geometry">
            <mxPoint x="630" y="250" as="sourcePoint" />
            <mxPoint x="770" y="200" as="targetPoint" />
            <Array as="points">
              <mxPoint x="762" y="250" />
              <mxPoint x="762" y="240" />
            </Array>
          </mxGeometry>
        </mxCell>
        <mxCell id="YRLC8kx0zA8VqUnMkEpF-1" value="«interface»&lt;br&gt;&lt;b&gt;API&lt;/b&gt;" style="html=1;rounded=0;shadow=0;comic=0;labelBackgroundColor=none;strokeWidth=1;fontFamily=Verdana;fontSize=12;align=center;" parent="1" vertex="1">
          <mxGeometry x="380" y="545" width="90" height="40" as="geometry" />
        </mxCell>
        <mxCell id="YRLC8kx0zA8VqUnMkEpF-2" style="edgeStyle=orthogonalEdgeStyle;rounded=0;html=1;labelBackgroundColor=none;startArrow=none;startFill=0;startSize=8;endArrow=open;endFill=0;endSize=16;fontFamily=Verdana;fontSize=12;dashed=1;exitX=0.5;exitY=1;exitDx=0;exitDy=0;entryX=1;entryY=0.5;entryDx=0;entryDy=0;" parent="1" source="39150e848f15840c-10" target="YRLC8kx0zA8VqUnMkEpF-1" edge="1">
          <mxGeometry relative="1" as="geometry">
            <Array as="points">
              <mxPoint x="550" y="565" />
            </Array>
            <mxPoint x="360" y="240" as="sourcePoint" />
          </mxGeometry>
        </mxCell>
        <mxCell id="YRLC8kx0zA8VqUnMkEpF-6" value="" style="shape=cylinder3;whiteSpace=wrap;html=1;boundedLbl=1;backgroundOutline=1;size=15;fillColor=#f8cecc;strokeColor=#b85450;" parent="1" vertex="1">
          <mxGeometry x="460" y="670" width="70" height="80" as="geometry" />
        </mxCell>
        <mxCell id="YRLC8kx0zA8VqUnMkEpF-7" value="" style="endArrow=classic;startArrow=classic;html=1;rounded=0;exitX=0.5;exitY=0;exitDx=0;exitDy=0;exitPerimeter=0;entryX=0;entryY=0;entryDx=150;entryDy=135;entryPerimeter=0;" parent="1" source="YRLC8kx0zA8VqUnMkEpF-6" target="39150e848f15840c-3" edge="1">
          <mxGeometry width="50" height="50" relative="1" as="geometry">
            <mxPoint x="440" y="645" as="sourcePoint" />
            <mxPoint x="490" y="595" as="targetPoint" />
          </mxGeometry>
        </mxCell>
        <mxCell id="YRLC8kx0zA8VqUnMkEpF-8" value="Music Catalogue" style="text;html=1;align=center;verticalAlign=middle;resizable=0;points=[];autosize=1;strokeColor=none;fillColor=none;fontSize=14;fontStyle=1" parent="1" vertex="1">
          <mxGeometry x="535" y="695" width="130" height="30" as="geometry" />
        </mxCell>
        <mxCell id="YRLC8kx0zA8VqUnMkEpF-10" value="&lt;u&gt;AreaTunes System Model&lt;/u&gt;" style="text;html=1;align=center;verticalAlign=middle;resizable=0;points=[];autosize=1;strokeColor=none;fillColor=none;fontSize=20;fontStyle=1" parent="1" vertex="1">
          <mxGeometry x="360" y="22" width="270" height="40" as="geometry" />
        </mxCell>
        <mxCell id="YRLC8kx0zA8VqUnMkEpF-11" value="" style="edgeStyle=elbowEdgeStyle;rounded=0;html=1;labelBackgroundColor=none;startArrow=none;startFill=0;startSize=8;endArrow=none;endFill=0;endSize=16;fontFamily=Verdana;fontSize=12;entryX=0.433;entryY=1.033;entryDx=0;entryDy=0;entryPerimeter=0;" parent="1" target="39150e848f15840c-9" edge="1">
          <mxGeometry relative="1" as="geometry">
            <mxPoint x="630" y="250" as="sourcePoint" />
            <mxPoint x="762" y="217" as="targetPoint" />
            <Array as="points" />
          </mxGeometry>
        </mxCell>
        <mxCell id="39150e848f15840c-9" value="" style="ellipse;whiteSpace=wrap;html=1;rounded=0;shadow=0;comic=0;labelBackgroundColor=none;strokeWidth=1;fontFamily=Verdana;fontSize=12;align=center;" parent="1" vertex="1">
          <mxGeometry x="620" y="241" width="20" height="20" as="geometry" />
        </mxCell>
      </root>
    </mxGraphModel>
  </diagram>
</mxfile>
